<svg xmlns="http://www.w3.org/2000/svg" fill="none" viewBox="0 0 128 128" height="128" width="128">
<mask height="128" width="128" y="0" x="0" maskUnits="userSpaceOnUse" style="mask-type:alpha" id="mask0_566_1032">
<rect fill="#D9D9D9" height="128" width="128"></rect>
</mask>
<g mask="url(#mask0_566_1032)">
<path fill="black" d="M93.0129 6C96.255 6 99.1405 8.02849 100.2 11.0522L126.957 87.4385C128.337 91.3772 128.348 95.6571 126.989 99.6029L121.182 116.466C120.134 119.509 117.239 121.556 113.982 121.556H14.0181C10.7615 121.556 7.86634 119.509 6.81846 116.466L1.01095 99.6029C-0.347906 95.6571 -0.336601 91.3772 1.04309 87.4385L27.8003 11.0522C28.8595 8.02849 31.745 6 34.9871 6H93.0129ZM25.539 100.921H68.0159C73.7472 100.921 77.7823 95.3941 75.9397 90.0681L56.0517 32.5821C54.8993 29.2509 51.7127 27.0101 48.128 27.0101H45.7678C42.1991 27.0101 39.0231 29.2312 37.8582 32.5417L17.6293 90.0277C15.7525 95.3612 19.7893 100.921 25.539 100.921ZM93.2923 75.2573C88.6707 75.2573 84.9242 78.934 84.9242 83.4695V92.7084C84.9242 97.2439 88.6707 100.921 93.2923 100.921H102.706C107.328 100.921 111.074 97.2439 111.074 92.7084V83.4695C111.074 78.934 107.328 75.2573 102.706 75.2573H93.2923Z" clip-rule="evenodd" fill-rule="evenodd"></path>
</g>
</svg>
